<svg width="64" height="64" viewBox="0 0 64 64" fill="none" xmlns="http://www.w3.org/2000/svg">
<rect width="64" height="64" fill="white"/>
<path d="M31.3008 51.456C28.3073 51.456 25.5836 51.0389 23.1299 50.2046C20.7253 49.3703 19.1058 48.3152 18.2715 47.0393L18.7132 39.0156H21.5841L22.6882 43.1378C23.179 44.8555 24.1605 46.2541 25.6327 47.3337C27.154 48.4134 28.8962 48.9532 30.8592 48.9532C32.9203 48.9532 34.6379 48.3398 36.012 47.1129C37.3861 45.837 38.0731 44.2911 38.0731 42.4753C38.0731 41.3466 37.6805 40.4633 36.8953 39.8253C36.1592 39.1873 35.1777 38.623 33.9509 38.1322C32.724 37.6415 31.4235 37.1262 30.0494 36.5864C28.5772 35.9975 27.0804 35.3104 25.5591 34.5253C24.0869 33.7401 22.7373 32.8076 21.5105 31.728C20.2836 30.6484 19.2776 29.3233 18.4924 27.753C17.7562 26.1826 17.3882 24.3177 17.3882 22.1584C17.3882 20.1464 18.0262 18.4042 19.3021 16.932C20.578 15.4107 22.3447 14.2084 24.6022 13.325C26.8596 12.4417 29.3869 12 32.1842 12C34.0981 12 36.1347 12.319 38.294 12.957C40.5023 13.5458 42.3917 14.282 43.9621 15.1653V23.7779H41.0912L39.9134 19.582C39.4718 18.0607 38.5639 16.8338 37.1898 15.9014C35.8648 14.969 34.3435 14.5028 32.6259 14.5028C30.8101 14.5028 29.2888 15.0672 28.0619 16.1959C26.8841 17.2755 26.2952 18.6251 26.2952 20.2445C26.2952 21.3242 26.6633 22.2075 27.3994 22.8946C28.1355 23.5325 29.0925 24.0969 30.2703 24.5876C31.4971 25.0784 32.7485 25.5937 34.0245 26.1335C35.9384 26.9187 37.8278 27.8756 39.6926 29.0044C41.6065 30.1331 43.1769 31.6299 44.4038 33.4947C45.6306 35.3104 46.2441 37.666 46.2441 40.5614C46.2441 42.6716 45.5816 44.561 44.2565 46.2296C42.9806 47.849 41.2139 49.125 38.9565 50.0574C36.699 50.9898 34.1472 51.456 31.3008 51.456Z" fill="#161514"/>
</svg>
